/* XPM */
static char *a84c4348dc444b3d854457fa1dc12682DZV1XrcfHGxBOKjP[] = {
/* columns rows colors chars-per-pixel */
"64 64 34 1 ",
"  c #2966CF",
". c #2564D2",
"X c #2B65D5",
"o c #2C68D6",
"O c #2E65D9",
"+ c #2E68D9",
"@ c #3066D7",
"# c #3366DC",
"$ c #3967DF",
"% c #3468DD",
"& c #3969DE",
"* c #3667E1",
"= c #3B67E2",
"- c #3669E1",
"; c #3C69E4",
": c #3F6AE8",
"> c #4167E6",
", c #406AE7",
"< c #436BEB",
"1 c #496CEE",
"2 c #4C6DF2",
"3 c #0E9EE6",
"4 c #1197E3",
"5 c #109CE6",
"6 c #109EE8",
"7 c #1B9CF0",
"8 c #05A7E7",
"9 c #0EA1E7",
"0 c #07A7E9",
"q c #0DA4EA",
"w c #04ACEA",
"e c #0AADED",
"r c #10A0E7",
"t c #01B5EE",
/* pixels */
"eee21<<1<,;,;;-,;,:-%%-;<:<1<;<22q3<<<::-*--;;;;;;;;=;;,;<1222ee",
"eqeeq9,<1<;-%##&&;;&#%&;<<:<;-;2204=<1<=;;:;;-&&%**;,--%-,12eeee",
"<110etee<<>&##%,<<:*#*;:<<1<:;12e3=;<21::;-;;,,>>>--%%$=>12ete22",
"1<<11eete1<>&##;;:<1<<11221<;:2et1<;<<<;;<21<<<<<<<11<<,12etq<<1",
"<<1<<<100ee1;;;<<<<<122222<:;1ttw1<<,<<;<22eeeeeeeq9r59qe2te1;;1",
"<<<<1<:<<qte1;;;<1222222<<<;<ette21<<<<1eeeee0eeq00qeeeet7t<;*;<",
":;<<<<<<,<rqe<,<1222221<1<<1eteetee212eeeee11<<<<,<<1112ete::--;",
":;;<::<<>;<<tq,,<2211<<1<<1ete22eeteeeee221<<<<<<;;;;;<12t6:--%;",
"*%%#%&;<<<,<qw,$<<<;1<<<2eeee22222ettt2221<-*;----=--;>2ee<;;*%*",
"#%%#X+&,<<,<1eq,;:<<<<12ete22221222te222<:;;;;;;:;<-%%;2w6;:*O+*",
"O%*+OX%&<1<<<<w<<;:112eete221:<<<12te221;;%+#O*#;:1:$-<e0>:<%++-",
"X+-O*O%-;,<<<,t1<<122ttee21<;<<,:12et2<:*%##+++*#12>;;<t6:=;#++;",
"o#;;&;-;&,,<,<qe22eeeet221<:<;<;;<12t2<;;:*O+%O*%<1<=;<t<:<,%##-",
"XO;-&;;<;;,1,,1teetee221<::;;<11<,12t21;;<%++%#O#;,;=;<t<:;;&o+;",
"X%;-;;,<%-:<;;<teee2221<;&;-;,1<;;<2t2,:11-%%<=O#;<:;;<w<>,:&@o-",
".+**&<1%#&<2<<1ee22222:;*;;**;<1::12t2<:<1-+%;=##--;;<<6q:;<-@@$",
"o+@#-<;%#$<2<<12t2222<;%-&###;1<<;22t2<:<1&%%<*#O;;<<<:>w<<<;++%",
".O+#%;%##;22,<12te222;%-$-*%*;<;=<22t2<:<1---<%#O-;<<<:<w1:<-*O=",
"OXO##%##&121;:<2et22:*%*-#%&<1<<<12et2<;<<;=><=O#;,<<1<,8q<:-%%=",
"o+**%@@%=<21<,12et22;%%*-;&>:<<;<12te21:,1<--$##%;<;<<;;9t1;;*%=",
"#%;<;;,,<1<;:122tt21:-;&--,;:<12222t222:;<,%#%O#%<<;;<<,1tq<;*%;",
"-;<111<<<<<<<22ett21:-&;*&;;::1222ee2221<;;-@OO#-1<;-;,<1tt1;&%;",
";;,<1111<<:<12ettt22<:;:;;;;;<222et22221<;--OXO#;<:;-;<12tte1:;<",
"<11<,,<,<;<12et02t22<;;-%-%;<222tte22222;%%;=@@#-<;-,;<2etetq<12",
"<<<<<<<<;5eeetq12t221:-#*-;<222ette22222<%;:*#O*&-;;;<2ete2qwe22",
"eee03555qteeeq<:<t211<-%%-1222eeteete222<-;;;%%##%%;122te21,3q0e",
"e0e00eqeeq221::;<qe22<;%&<22eee2222ete221;;,*%#o#$-122et2<;-;;re",
"1<111<1<1<<<<<;;>1t222;*;122tt2221<2et2221<;*@+&--;22ete<,;%;=<1",
"1<1<1<21111<:><><<ee22<;;12ee21<::,12ee2222<;&;&;,12ete<,-->==>1",
",;:;;;><<;;=;<1<<12t21<;,22t22,:::<<22t2222<;;;1122ete1;&,<<<<<1",
";<;%#%*--;;<;>11,<1ee22122ee21;;;--:22ee2211,<2222ete2,%%=,,;<<1",
";;%o+X@#&;:-;;<2<<<2te2222t221;,;;-:<22t22222222eeee2>--;<;;;;<1",
"-&O....O%&;;;;<21<<1et2222t221::;&%%;12et222eeeee021<-*-,;*+@#=1",
";;oX...X;1;-%&;<<<,11ee222t22<::-&%%;<22teeeteeq<<:1<%%=<-+XO#;<",
"#%OXX. O;;%@%#;-,<;-:1eee2te22<:;&;%;<12teeeq<<<1<<:-%%*;*+ X#;1",
"-;#oXXX#;;####;,,-**;<1eeeet211<:;&&&;<2t2211<<<><;;%%#&%#XXX%<2",
";;;#OOo$:%oO@%%--#%-;;<12ee72211<;;%%-12ee21,-><<>**###&*#+##;12",
"<<<;*%,<<;#%&-&,<%$=<;;<22eee22221<;-;<22t2<;<1<:=%###&*%#%-1222",
";,1<<<221,%#&-:;--;11<::222eeee2221;;,122t1><12<-#+X+##%*;<22222",
",:;;;>1111;=;;;;-;<22<::1222ettee22221222t1<;<1<-%#+OO#&;:1221<2",
"1<<<;;,<<<<<11<-$,1221,<122et7eqtee222222t2<<<1<:*%##%&-;121<,<1",
"<;<;;,:;<<<<<-;;$1222<<,12ete1<<0eeee2222t1,-:<11;;*%##;<<<<<,<<",
"2222<,,;;<<111<<1111<;;<22te1<:<122eteee2t21<;<1221<;;;,:<,,,,12",
"eee2221<;-;,<<1<<<<,,<122ee1<:-;;,112eeeetw1,<;<11221<;;;<,,122e",
"eetee221<<<111<<<1<<<<22e01<<,;;;;;,1212ette221<<111<;;,;<1qeeee",
"11e0te221<<,;<:<<<<1112et1<;,<,<,&;;;<<<<1eeee11<;;<<<<<1eeteqe2",
"<1<1qwee211<<<:,222222ete<;:;<;<:&;;<<<<<<22ete1<<<;;<12eteq<<22",
"111<<9qtt21<<<1222222ete21:;<;,<<<;,,<<-;1222eteq<<;,<2eeq<1:;<1",
"<<11<1<qwee22222222ette222<<<,,,<,<<,<,;;12222ttte1<22e0<<1<:;:1",
"-,<;<1<,rqtee2222eettte2221<<<;,;<<<,,,;;22222t7ete22ee1<,<;;-*<",
"+#-111,;,1eeteteetee2ee002221<<<<1,;<;:;<1222ee220te2t2<;:11&%%:",
"X%-;<<;,,<22ettee21<<<<3ee0e22222111<<<11222et1<<<qeet1<:<1<#Oo-",
"o#%;;,,,<222ee1<,<,,,<,1<5qq0e0e0eeee222222etq<<;;<1qt01<;<;#X+&",
"%;<:;,<1222eeq<<,,:::<<,11<<555rqqeqteee2eet0<;;<<;<1qtq<<<,#@#$",
";<;-;<222eq591:;-;;;<,<<<<<<<<1;;,<<2eetetee<<,<<1<<;<qt01<<;%*<",
"<<:<1222eq3:;;-;;;;;::;;;;,<<,,<<<,<122tee11,,;,;>-;-,<qte1<<;<1",
"=:<2222e05:*:<<<;$--<;;;<;;<<<<11<=,<22t21<:;;---;-;,,:10te1<,<2",
";<122ee05;*;<<<<,;;;;<;;;;<<;:122<<<1eee1:;::<;;&%-&,,<:<5w01<11",
":222ete3;*:,<21<:-**-%#%;:,;-,121<:<2te1:;-<:&%-*%&;<111,,rt0<12",
"222eee<;-;<<<;;;-%%######:;<<<11<;<<ee1:;*<<*##%%%-,<221,;<qte22",
"22ew3<<:;-%%OO@##+++O+++%*;;;<<<>;<et<;&%;,;%%####%;,2221;;<ete2",
"2etq<<<<;*%%OXXO#+@##%%##*;;;<,;,1tt0<;%;,;&#X++O#*;,1<<,;&<2et7",
"ete1:<121-*+oO#*;;;;-<::;;;,<,;<1qte1:;;;<<;-;--#*;<11121,,,22et",
"ee2112211<;;-;;;;<;:<;<,1111<<122ee21111<1<<<,;<<<<<<<<<<;<<222e"
};
